<svg height="512pt" viewBox="-1 -1 512.00022 512" width="512pt" xmlns="http://www.w3.org/2000/svg"><path d="m498.296875 255.988281 13.058594-125.296875c6.765625-65.054687-40.484375-123.277344-105.539063-130.046875-8.152344-.847656-16.375-.847656-24.527344.003907l-125.285156 13.046874-125.285156-13.046874c-65.054688-6.78125-123.285156 40.460937-130.0625 105.515624-.851562 8.152344-.851562 16.375-.003906 24.527344l13.058594 125.296875-13.058594 125.296875c-6.808594 65.011719 40.378906 123.238282 105.394531 130.042969 8.199219.859375 16.46875.859375 24.671875 0l125.285156-13.046875 125.285156 13.046875c65.054688 6.777344 123.285157-40.460937 130.0625-105.515625.851563-8.152344.851563-16.375.003907-24.527344zm-36.21875 206.074219c-20.640625 20.6875-49.53125 30.929688-78.59375 27.863281l-126.402344-13.167969c-.363281.011719-.722656.042969-1.078125.097657-.355468-.058594-.714844-.089844-1.078125-.097657l-126.394531 13.167969c-53.222656 5.550781-100.871094-33.097656-106.421875-86.324219-.695313-6.679687-.695313-13.410156 0-20.089843l13.1875-126.449219c0-.386719-.105469-.742188-.105469-1.074219 0-.335937.140625-.734375.105469-1.078125l-13.230469-126.449218c-5.542968-53.222657 33.109375-100.867188 86.332032-106.410157 6.679687-.699219 13.414062-.695312 20.089843 0l126.4375 13.167969c.363281-.011719.722657-.046875 1.078125-.097656.355469.050781.714844.082031 1.078125.097656l126.394531-13.167969c53.222657-5.550781 100.871094 33.097657 106.421876 86.320313.695312 6.679687.695312 13.414062 0 20.089844l-13.132813 126.449218c0 .386719.105469.742188.105469 1.078125 0 .332031-.140625.730469-.105469 1.074219l13.175781 126.40625c3.09375 29.066406-7.152344 57.96875-27.863281 78.59375zm0 0" fill="#b9b9b9"/><path d="m256.003906 24.515625c-127.835937 0-231.472656 103.632813-231.472656 231.472656 0 127.835938 103.636719 231.46875 231.472656 231.46875 127.839844 0 231.472656-103.632812 231.472656-231.46875 0-127.839843-103.632812-231.472656-231.472656-231.472656zm0 317.601563c-47.566406 0-86.128906-38.5625-86.128906-86.128907 0-47.566406 38.5625-86.128906 86.128906-86.128906s86.128906 38.5625 86.128906 86.128906c0 47.566407-38.5625 86.128907-86.128906 86.128907zm0 0" fill="#d9d9d9"/><g fill="#dc4d41"><path d="m169.875 255.988281c0-15.917969 4.441406-31.515625 12.824219-45.046875l-147.097657-25.578125c-14.757812 45.925781-14.757812 95.320313 0 141.25l147.097657-25.582031c-8.382813-13.527344-12.824219-29.128906-12.824219-45.042969zm0 0"/><path d="m342.132812 255.988281c0 15.914063-4.441406 31.515625-12.820312 45.042969l147.09375 25.582031c14.757812-45.925781 14.757812-95.324219 0-141.25l-147.09375 25.578125c8.382812 13.53125 12.820312 29.128906 12.820312 45.046875zm0 0"/><path d="m256.003906 24.515625c-23.972656 0-47.800781 3.734375-70.625 11.066406l25.582032 147.097657c27.59375-17.09375 62.492187-17.09375 90.089843 0l25.578125-147.097657c-22.824218-7.332031-46.652344-11.066406-70.625-11.066406zm0 0"/><path d="m256.003906 487.460938c23.972656-.003907 47.800782-3.738282 70.625-11.070313l-25.578125-147.097656c-27.597656 17.097656-62.496093 17.097656-90.09375 0l-25.578125 147.097656c22.824219 7.332031 46.652344 11.066406 70.625 11.070313zm0 0"/></g></svg>